<?xml version="1.0" standalone="no"?>
<!DOCTYPE svg PUBLIC "-//W3C//DTD SVG 20010904//EN"
 "http://www.w3.org/TR/2001/REC-SVG-20010904/DTD/svg10.dtd">
<svg version="1.0" xmlns="http://www.w3.org/2000/svg"
 width="200.000000pt" height="200.000000pt" viewBox="0 0 200.000000 200.000000"
 preserveAspectRatio="xMidYMid meet">
<metadata>
Created by potrace 1.10, written by Peter Selinger 2001-2011
</metadata>
<g transform="translate(0.000000,200.000000) scale(0.100000,-0.100000)"
fill="#000000" stroke="none">
<path d="M837 1214 c-4 -4 -7 -58 -7 -119 0 -134 3 -138 90 -133 57 3 60 2 60
-19 0 -13 -4 -23 -10 -23 -5 0 -10 -4 -10 -10 0 -6 27 -10 60 -10 33 0 60 4
60 10 0 6 -7 10 -15 10 -9 0 -15 9 -15 23 0 21 4 22 72 22 l73 0 0 125 0 125
-176 3 c-96 1 -178 -1 -182 -4z m353 -119 l0 -115 -170 0 -170 0 0 115 0 115
170 0 170 0 0 -115z m-150 -151 c0 -19 -5 -24 -25 -24 -20 0 -25 5 -25 24 0
18 5 24 25 24 20 0 25 -6 25 -24z"/>
<path d="M1009 1095 c-15 -36 -23 -67 -19 -70 4 -3 10 3 13 13 2 9 14 41 26
70 11 28 17 52 13 52 -4 0 -19 -30 -33 -65z"/>
<path d="M913 1120 c-18 -11 -33 -23 -33 -27 0 -5 18 -18 40 -30 22 -12 40
-17 40 -12 0 4 -14 16 -32 25 -34 18 -34 17 19 51 31 20 0 14 -34 -7z"/>
<path d="M1070 1135 c0 -2 16 -13 35 -22 l35 -18 -35 -19 c-19 -11 -35 -23
-35 -28 0 -9 61 23 84 43 4 4 -10 17 -32 28 -42 22 -52 25 -52 16z"/>
<path d="M938 785 c2 -41 8 -75 13 -75 5 0 9 13 9 29 0 16 6 31 14 34 19 8 26
-1 26 -35 0 -20 5 -28 18 -28 11 0 13 3 5 8 -6 4 -13 21 -15 37 -2 24 -8 30
-25 29 -20 0 -23 4 -23 38 0 24 -5 38 -12 38 -10 0 -12 -20 -10 -75z"/>
<path d="M1158 785 c2 -41 8 -75 13 -75 5 0 9 13 9 29 0 16 6 31 14 34 19 8
26 -1 26 -35 0 -20 5 -28 18 -28 11 0 13 3 5 8 -6 4 -13 21 -15 37 -2 24 -8
30 -25 29 -20 0 -23 4 -23 38 0 24 -5 38 -12 38 -10 0 -12 -20 -10 -75z"/>
<path d="M573 828 c-2 -5 1 -8 6 -8 7 0 11 -23 11 -55 0 -30 5 -55 10 -55 6 0
10 12 10 26 0 24 3 26 30 21 25 -6 30 -3 30 13 0 16 -5 19 -30 14 -26 -6 -30
-4 -30 16 0 20 4 22 36 17 25 -4 34 -2 31 6 -4 13 -96 17 -104 5z"/>
<path d="M1062 824 c-25 -17 -30 -70 -9 -96 18 -24 51 -30 73 -14 17 14 16 15
-18 9 -33 -5 -39 -3 -49 21 -18 39 1 76 40 76 16 0 32 -6 34 -12 4 -8 6 -7 6
3 1 9 -9 19 -21 23 -31 8 -31 8 -56 -10z"/>
<path d="M778 803 c-6 -71 16 -113 48 -94 18 10 17 10 -3 11 -18 0 -23 6 -23
25 0 16 6 25 15 25 8 0 15 5 15 10 0 6 -7 10 -15 10 -8 0 -15 7 -15 15 0 21
-20 19 -22 -2z"/>
<path d="M697 784 c-14 -14 -7 -26 8 -14 8 6 19 9 25 5 18 -11 11 -25 -14 -25
-30 0 -42 -16 -26 -35 8 -10 18 -12 28 -6 8 5 24 6 36 4 13 -3 17 -2 9 4 -6 4
-13 22 -15 38 -2 21 -9 31 -23 33 -12 2 -24 0 -28 -4z m38 -54 c-3 -5 -13 -10
-21 -10 -8 0 -14 5 -14 10 0 6 9 10 21 10 11 0 17 -4 14 -10z"/>
<path d="M855 779 c-4 -6 -4 -13 0 -17 3 -3 10 0 14 7 5 7 14 10 20 7 18 -11
13 -26 -9 -26 -25 0 -38 -29 -19 -40 7 -5 20 -5 28 -1 9 5 21 6 27 4 13 -5 7
45 -9 65 -12 15 -43 16 -52 1z m45 -49 c0 -5 -9 -10 -20 -10 -11 0 -20 5 -20
10 0 6 9 10 20 10 11 0 20 -4 20 -10z"/>
<path d="M1267 784 c-14 -14 -7 -26 8 -14 8 6 19 9 25 5 19 -11 10 -25 -16
-25 -21 0 -24 -4 -20 -20 3 -11 8 -20 11 -20 57 0 68 2 58 8 -6 4 -13 21 -15
37 -2 21 -9 31 -23 33 -12 2 -24 0 -28 -4z m38 -54 c-3 -5 -13 -10 -21 -10 -8
0 -14 5 -14 10 0 6 9 10 21 10 11 0 17 -4 14 -10z"/>
<path d="M1340 778 c0 -4 5 -8 10 -8 6 0 11 -15 11 -32 l1 -33 7 30 c9 42 41
47 41 6 0 -22 5 -31 16 -31 13 0 14 3 4 15 -6 8 -9 19 -5 25 12 19 -14 38 -50
37 -19 -1 -35 -5 -35 -9z"/>
</g>
</svg>
